<?xml version="1.0" standalone="no"?>
<!DOCTYPE svg PUBLIC "-//W3C//DTD SVG 20010904//EN"
 "http://www.w3.org/TR/2001/REC-SVG-20010904/DTD/svg10.dtd">
<svg version="1.0" xmlns="http://www.w3.org/2000/svg"
 width="357.000000pt" height="141.000000pt" viewBox="0 0 357.000000 141.000000"
 preserveAspectRatio="xMidYMid meet">

<g transform="translate(0.000000,141.000000) scale(0.100000,-0.100000)"
fill="#000000" stroke="none">
<path d="M1463 1364 c-57 -21 -129 -87 -161 -148 -23 -44 -27 -63 -27 -136 0
-76 3 -91 30 -139 53 -96 159 -161 263 -161 93 0 92 -1 92 111 l0 100 -30 -16
c-73 -38 -164 7 -176 86 -19 116 130 187 209 99 l27 -30 0 -175 0 -175 96 0
96 0 -4 184 c-4 183 -4 183 -36 249 -33 66 -73 107 -142 142 -48 25 -180 30
-237 9z"/>
<path d="M1918 1370 c-14 -4 -45 -18 -67 -31 l-40 -22 23 -28 c13 -15 34 -53
47 -83 l23 -56 21 20 c48 45 120 42 168 -6 73 -73 19 -199 -85 -199 l-38 0 0
-87 0 -88 58 0 c152 1 276 133 276 295 1 166 -129 296 -294 294 -36 0 -77 -4
-92 -9z"/>
<path d="M20 310 l0 -310 1765 0 1765 0 0 310 0 310 -1765 0 -1765 0 0 -310z
m1800 78 c1 -75 3 -90 13 -77 65 83 62 80 106 77 l41 -3 -40 -48 -40 -49 40
-58 c22 -33 40 -61 40 -64 0 -4 -18 -6 -40 -6 -35 0 -42 4 -70 45 -17 25 -35
43 -41 40 -5 -4 -9 -24 -9 -46 0 -39 0 -39 -40 -39 l-40 0 0 160 0 160 40 0
40 0 0 -92z m529 71 c28 -10 31 -15 31 -50 l0 -39 -37 20 c-74 39 -146 14
-159 -56 -12 -65 24 -112 91 -117 26 -2 30 2 33 26 3 24 0 27 -27 27 -28 0
-31 3 -31 30 l0 30 70 0 70 0 0 -79 0 -79 -51 -12 c-99 -24 -190 5 -224 70 -8
16 -15 53 -15 83 0 65 28 113 80 139 40 20 121 23 169 7z m-1931 -81 c17 -46
42 -113 56 -150 l26 -68 -43 0 c-38 0 -44 3 -54 30 -11 28 -14 30 -66 30 -53
0 -56 -1 -62 -30 -6 -28 -10 -30 -51 -30 -43 0 -43 0 -33 28 6 15 28 74 49
132 21 58 41 113 45 123 5 13 19 17 55 17 l47 0 31 -82z m727 57 c30 -30 31
-54 4 -89 -11 -14 -16 -26 -12 -26 5 0 19 -9 31 -20 34 -32 30 -82 -9 -114
-28 -24 -38 -26 -130 -26 l-99 0 0 150 0 150 95 0 c88 0 98 -2 120 -25z m1650
-49 c84 -35 87 -178 5 -221 -58 -30 -140 -12 -174 37 -21 30 -21 117 0 147 33
46 107 63 169 37z m550 0 c27 -12 36 -23 45 -56 29 -109 -45 -204 -133 -171
l-27 11 0 -50 0 -50 -35 0 -35 0 0 160 0 160 35 0 c19 0 35 -4 35 -9 0 -5 17
-3 38 5 20 7 38 13 40 14 1 0 18 -6 37 -14z m-2637 -12 c21 -14 25 -14 47 0
35 23 88 20 111 -5 15 -17 20 -40 22 -120 l4 -99 -41 0 -40 0 -3 88 -3 87 -30
0 -30 0 -3 -82 -3 -83 -39 0 -39 0 -3 83 -3 82 -30 0 -30 0 -5 -85 -5 -85 -37
-3 -38 -3 0 116 0 116 50 -2 c27 -2 53 0 57 4 12 13 68 7 91 -9z m686 5 c33
-15 46 -56 46 -145 l0 -74 -40 0 c-22 0 -40 5 -40 11 0 5 -10 3 -22 -5 -36
-26 -93 -21 -117 10 -27 34 -26 57 2 89 16 18 37 28 75 34 64 10 72 17 39 32
-19 8 -37 9 -66 2 -22 -6 -43 -8 -46 -5 -12 13 -4 51 13 55 35 9 132 7 156 -4z
m287 -8 c22 -17 24 -29 27 -115 l4 -96 -41 0 -41 0 0 68 c0 78 -14 106 -51
100 -23 -3 -24 -6 -27 -90 l-3 -88 -39 0 -40 0 0 116 0 117 49 -5 c28 -3 56
-1 63 3 23 15 75 10 99 -10z m819 4 c0 -14 3 -14 30 0 47 24 60 20 60 -20 0
-32 -2 -35 -29 -35 -57 0 -61 -6 -61 -86 l0 -74 -40 0 -40 0 0 108 c0 60 3
112 7 115 3 4 21 7 40 7 23 0 33 -5 33 -15z m460 -75 l5 -85 30 0 30 0 5 85 5
85 38 3 37 3 0 -115 0 -116 -35 0 c-19 0 -35 5 -35 11 0 5 -10 3 -22 -5 -34
-24 -85 -20 -113 9 -23 22 -25 31 -25 120 l0 96 38 -3 37 -3 5 -85z"/>
<path d="M318 325 l-17 -45 35 0 c32 0 35 2 28 23 -11 37 -23 67 -27 67 -1 0
-10 -20 -19 -45z"/>
<path d="M1010 376 c0 -31 3 -36 23 -36 13 0 32 6 43 14 26 20 8 50 -35 54
-30 3 -31 2 -31 -32z"/>
<path d="M1010 255 c0 -35 0 -35 44 -35 37 0 46 4 52 22 8 28 -18 48 -63 48
-31 0 -33 -2 -33 -35z"/>
<path d="M2701 326 c-7 -8 -11 -36 -9 -63 3 -44 5 -48 31 -51 16 -2 35 2 43 9
17 14 19 90 2 107 -16 16 -53 15 -67 -2z"/>
<path d="M3243 334 c-18 -8 -17 -113 0 -120 25 -9 66 14 73 42 13 51 -30 96
-73 78z"/>
<path d="M1315 261 c-21 -4 -31 -13 -33 -29 -3 -19 1 -22 32 -22 33 0 36 2 36
30 0 17 -1 29 -2 29 -2 -1 -16 -4 -33 -8z"/>
</g>
</svg>
